<?xml version="1.0" encoding="iso-8859-1"?>
<!-- Generator: Adobe Illustrator 19.0.0, SVG Export Plug-In . SVG Version: 6.00 Build 0)  -->
<svg version="1.1" id="Capa_1" xmlns="http://www.w3.org/2000/svg" xmlns:xlink="http://www.w3.org/1999/xlink" x="0px" y="0px"
	 viewBox="0 0 512.001 512.001" style="enable-background:new 0 0 512.001 512.001;" xml:space="preserve">
<g>
	<g transform="translate(0 1)">
		<path style="fill:#00BCD4;" d="M499.712,297.667c5.006-28.224,5.006-57.109,0-85.333h-52.224
			c-4.871-22.223-13.655-43.402-25.941-62.549l36.949-36.949c-16.413-23.496-36.835-43.918-60.331-60.331l-36.949,36.949
			c-19.147-12.286-40.327-21.07-62.549-25.941V11.289c-28.224-5.006-57.109-5.006-85.333,0v487.424
			c28.224,5.006,57.109,5.006,85.333,0v-52.224c22.223-4.871,43.402-13.655,62.549-25.941l36.949,36.949
			c23.496-16.413,43.918-36.835,60.331-60.331l-36.949-36.949c12.286-19.147,21.07-40.327,25.941-62.549H499.712z M256,203.801
			c28.277,0,51.2,22.923,51.2,51.2s-22.923,51.2-51.2,51.2V203.801z"/>
		<path style="fill:#CFD8DC;" d="M366.934,255.001c0.001,29.422-11.686,57.638-32.491,78.443
			c-20.804,20.804-49.021,32.492-78.443,32.491v-59.733c28.277,0,51.2-22.923,51.2-51.2s-22.923-51.2-51.2-51.2v-59.733
			c29.422-0.001,57.638,11.686,78.443,32.491C355.247,197.362,366.934,225.579,366.934,255.001z"/>
		<path style="fill:#C52828;" d="M256,80.067v337.067c-0.017,47.121-38.212,85.316-85.333,85.333
			c-3.252,0.019-6.502-0.181-9.728-0.597c-1.024-0.085-1.963-0.256-2.901-0.427c-0.085,0.085-0.171,0.085-0.341,0
			c-2.82-0.396-5.613-0.966-8.363-1.707c-1.109-0.256-2.304-0.597-3.413-0.939c-1.621-0.512-3.243-1.024-4.864-1.621
			c-2.498-0.929-4.947-1.982-7.339-3.157c-3.731-1.779-7.325-3.832-10.752-6.144c-1.109-0.768-2.218-1.536-3.328-2.389
			c-5.251-3.901-10.033-8.397-14.251-13.397c-1.024-1.28-2.048-2.56-3.072-3.925c-1.653-2.194-3.191-4.473-4.608-6.827
			c-0.427-0.683-0.853-1.365-1.195-2.048c-0.738-1.177-1.393-2.403-1.963-3.669c-0.468-0.819-0.867-1.675-1.195-2.56
			c-0.817-1.573-1.53-3.197-2.133-4.864c-0.879-2.082-1.62-4.22-2.219-6.4c-0.363-1-0.649-2.028-0.853-3.072
			c-0.279-0.803-0.479-1.632-0.597-2.475c-0.277-0.955-0.505-1.923-0.683-2.901c-1.024-0.171-2.048-0.341-2.987-0.597
			c-33.884-6.778-58.277-36.527-58.284-71.083c-0.009-4.005,0.333-8.002,1.024-11.947c0.26-1.637,0.601-3.261,1.024-4.864
			c0.473-2.352,1.129-4.663,1.963-6.912c0.597-1.877,1.365-3.755,2.133-5.547c1.606-3.556,3.489-6.98,5.632-10.24
			c1.024-1.621,2.133-3.157,3.328-4.693C20.507,303.074,8.52,279.801,8.534,255.001c-0.028-1.51,0.029-3.02,0.171-4.523
			c0.001-1.114,0.086-2.227,0.256-3.328c0.085-1.28,0.256-2.56,0.427-3.84c0.256-1.621,0.597-3.243,0.939-4.779
			c0.335-1.736,0.791-3.447,1.365-5.12c2.109-7.51,5.423-14.629,9.813-21.077h0.085c-0.011-0.094,0.02-0.188,0.085-0.256
			c2.153-3.245,4.579-6.3,7.253-9.131c0.667-0.781,1.379-1.522,2.133-2.219c5.934-5.994,12.827-10.954,20.395-14.677
			c-5.798-10.192-8.828-21.725-8.789-33.451c-0.005-18.107,7.186-35.474,19.989-48.277s30.17-19.994,48.277-19.989h0.085
			c-0.085-1.451-0.085-2.816-0.085-4.267c-0.013-35.115,25.162-65.182,59.733-71.339c4.222-0.786,8.506-1.186,12.8-1.195
			C223.515,7.561,255.974,40.019,256,80.067z"/>
		<path style="fill:#F44335;" d="M230.4,80.067v337.067c-0.021,42.106-30.747,77.904-72.363,84.309
			c-0.085,0.085-0.171,0.085-0.341,0c-2.82-0.396-5.613-0.966-8.363-1.707c-1.109-0.256-2.304-0.597-3.413-0.939
			c-1.621-0.512-3.243-1.024-4.864-1.621c-2.498-0.929-4.947-1.982-7.339-3.157c-3.731-1.779-7.325-3.832-10.752-6.144
			c-1.109-0.768-2.218-1.536-3.328-2.389c-5.251-3.901-10.033-8.397-14.251-13.397c-1.024-1.28-2.048-2.56-3.072-3.925
			c-1.653-2.194-3.191-4.473-4.608-6.827c-0.427-0.683-0.853-1.365-1.195-2.048c-0.738-1.177-1.393-2.403-1.963-3.669
			c-0.468-0.819-0.867-1.675-1.195-2.56c-0.817-1.573-1.53-3.197-2.133-4.864c-0.879-2.082-1.62-4.22-2.219-6.4
			c-0.363-1-0.649-2.028-0.853-3.072c-0.279-0.803-0.479-1.632-0.597-2.475c-0.277-0.955-0.505-1.923-0.683-2.901
			c-1.024-0.171-2.048-0.341-2.987-0.597c-33.884-6.778-58.277-36.527-58.284-71.083c-0.009-4.005,0.333-8.002,1.024-11.947
			c0.26-1.637,0.601-3.261,1.024-4.864c0.473-2.352,1.129-4.663,1.963-6.912c0.597-1.877,1.365-3.755,2.133-5.547
			c1.606-3.556,3.489-6.98,5.632-10.24c1.024-1.621,2.133-3.157,3.328-4.693C20.507,303.074,8.52,279.801,8.534,255.001
			c-0.028-1.51,0.029-3.02,0.171-4.523c0.001-1.114,0.086-2.227,0.256-3.328c0.085-1.28,0.256-2.56,0.427-3.84
			c0.256-1.621,0.597-3.243,0.939-4.779c0.335-1.736,0.791-3.447,1.365-5.12c2.109-7.51,5.423-14.629,9.813-21.077h0.085
			c-0.011-0.094,0.02-0.188,0.085-0.256c2.153-3.245,4.579-6.3,7.253-9.131c0.667-0.781,1.379-1.522,2.133-2.219
			c5.934-5.994,12.827-10.954,20.395-14.677c-5.798-10.192-8.828-21.725-8.789-33.451c-0.005-18.107,7.186-35.474,19.989-48.277
			s30.17-19.994,48.277-19.989h0.085c-0.085-1.451-0.085-2.816-0.085-4.267c-0.013-35.115,25.162-65.182,59.733-71.339
			C205.238,14.886,230.413,44.952,230.4,80.067z"/>
		<g>
			<circle style="fill:#4CAF50;" cx="153.6" cy="169.667" r="17.067"/>
			<circle style="fill:#4CAF50;" cx="153.6" cy="237.934" r="17.067"/>
			<circle style="fill:#4CAF50;" cx="204.8" cy="289.134" r="17.067"/>
			<circle style="fill:#4CAF50;" cx="162.134" cy="400.067" r="17.067"/>
		</g>
		<g>
			<path style="fill:#00838F;" d="M421.547,149.785c12.286,19.147,21.07,40.327,25.941,62.549h-25.6
				c-4.871-22.223-13.655-43.402-25.941-62.549l36.949-36.949c-12.856-18.508-28.286-35.087-45.824-49.237l11.093-11.093
				c23.496,16.413,43.918,36.835,60.331,60.331L421.547,149.785z"/>
			<path style="fill:#00838F;" d="M503.467,255.001c0.009,14.305-1.248,28.583-3.755,42.667h-25.6
				c5.006-28.224,5.006-57.109,0-85.333h25.6C502.219,226.418,503.475,240.696,503.467,255.001z"/>
			<path style="fill:#00838F;" d="M458.496,397.166c-16.413,23.496-36.835,43.918-60.331,60.331l-11.093-11.093
				c17.538-14.15,32.968-30.73,45.824-49.237l-36.949-36.949c12.286-19.147,21.07-40.327,25.941-62.549h25.6
				c-4.871,22.223-13.655,43.402-25.941,62.549L458.496,397.166z"/>
		</g>
		<path style="fill:#607D8B;" d="M366.934,255.001c0.009,59.563-47.062,108.481-106.581,110.763
			c45.141-2.987,80.981-51.371,80.981-110.763s-35.84-107.776-80.981-110.763C319.871,146.52,366.943,195.438,366.934,255.001z"/>
	</g>
	<path d="M499.713,204.801H454.23c-4.722-18.545-12.089-36.313-21.875-52.758l32.175-32.175c2.926-2.924,3.332-7.526,0.962-10.917
		c-16.968-24.334-38.107-45.474-62.442-62.442c-3.391-2.368-7.992-1.962-10.917,0.962l-32.175,32.175
		c-16.445-9.786-34.214-17.153-52.758-21.875V12.288c0-4.132-2.961-7.671-7.029-8.4c-29.221-5.158-59.12-5.158-88.342,0
		c-0.628,0.152-1.236,0.376-1.812,0.669c-24.137-8.466-50.856-5.011-72.046,9.316s-34.349,37.836-35.484,63.39
		c-2.018,0.222-3.998,0.565-5.967,0.941c-0.36,0.069-0.734,0.098-1.093,0.172c-2.412,0.496-4.78,1.114-7.105,1.831
		c-0.735,0.227-1.438,0.523-2.164,0.772c-1.576,0.539-3.15,1.078-4.678,1.715c-0.866,0.361-1.694,0.788-2.543,1.179
		c-1.338,0.617-2.678,1.227-3.974,1.917c-0.887,0.473-1.736,1.001-2.603,1.507C71.159,88,69.957,88.7,68.797,89.465
		c-0.861,0.567-1.685,1.178-2.522,1.779c-1.106,0.794-2.205,1.594-3.266,2.444c-0.812,0.651-1.593,1.335-2.378,2.018
		c-1.014,0.882-2.013,1.775-2.98,2.708c-0.756,0.73-1.486,1.482-2.211,2.243c-0.922,0.966-1.822,1.949-2.693,2.962
		c-0.687,0.798-1.356,1.61-2.008,2.435c-0.83,1.049-1.627,2.12-2.403,3.211c-0.61,0.859-1.21,1.722-1.785,2.607
		c-0.734,1.129-1.424,2.283-2.099,3.452c-0.526,0.91-1.051,1.818-1.541,2.75c-0.634,1.209-1.211,2.447-1.782,3.693
		c-0.434,0.948-0.879,1.888-1.275,2.857c-0.531,1.298-0.991,2.627-1.452,3.959c-0.334,0.967-0.692,1.92-0.988,2.903
		c-0.426,1.412-0.765,2.859-1.109,4.303c-0.226,0.946-0.491,1.877-0.681,2.837c-0.323,1.624-0.539,3.283-0.756,4.943
		c-0.107,0.816-0.267,1.615-0.348,2.438c-0.246,2.5-0.385,5.03-0.385,7.593c-0.043,10.293,2.023,20.486,6.071,29.95
		c-0.535,0.333-0.999,0.744-1.526,1.088c-1.388,0.91-2.716,1.896-4.046,2.884c-3.068,2.255-5.982,4.714-8.722,7.358
		c-0.315,0.306-0.657,0.583-0.967,0.894c-1.603,1.601-3.086,3.29-4.549,5.005c-0.488,0.572-0.976,1.141-1.448,1.727
		c-1.423,1.762-2.783,3.557-4.058,5.423c-0.355,0.518-0.674,1.058-1.018,1.583c-3.694,5.668-6.692,11.76-8.928,18.145
		c-0.533,1.509-1.054,3.021-1.504,4.567c-0.408,1.419-0.771,2.847-1.106,4.292c-0.465,1.979-0.838,3.987-1.162,6.016
		c-0.184,1.167-0.399,2.319-0.535,3.499c-0.119,1.02-0.201,2.047-0.284,3.077c-0.026,0.172-0.129,0.31-0.145,0.486
		C0.013,251.73,0,253.863,0,256.001c0.037,24.539,10.616,47.879,29.046,64.081c-3.776,6.174-6.702,12.828-8.699,19.784
		c-0.115,0.393-0.23,0.783-0.339,1.177c-0.879,3.2-1.562,6.452-2.043,9.735c-0.079,0.542-0.129,1.088-0.197,1.632
		c-0.447,3.401-0.681,6.827-0.701,10.257c-0.167,37.764,25.891,70.588,62.708,78.992c0.245,0.948,0.576,1.856,0.848,2.792
		c0.267,0.911,0.533,1.82,0.827,2.719c0.671,2.064,1.423,4.084,2.229,6.078c0.259,0.638,0.493,1.286,0.765,1.918
		c3.448,8.012,8.001,15.502,13.527,22.252c0.337,0.412,0.694,0.805,1.038,1.212c1.483,1.752,3.024,3.447,4.623,5.085
		c0.527,0.539,1.064,1.065,1.604,1.591c1.495,1.454,3.036,2.855,4.623,4.203c0.638,0.544,1.268,1.092,1.92,1.619
		c1.615,1.303,3.284,2.534,4.982,3.728c0.649,0.457,1.273,0.941,1.934,1.381c2.32,1.545,4.694,3.011,7.148,4.347
		c0.448,0.244,0.923,0.441,1.375,0.678c2.017,1.057,4.063,2.061,6.159,2.971c1.043,0.454,2.117,0.841,3.18,1.257
		c1.573,0.616,3.152,1.215,4.763,1.747c1.166,0.385,2.346,0.73,3.532,1.07c1.609,0.462,3.234,0.881,4.873,1.256
		c1.165,0.267,2.328,0.529,3.508,0.752c1.84,0.348,3.701,0.614,5.573,0.853c1.01,0.128,2.008,0.291,3.028,0.386
		c2.916,0.275,5.857,0.447,8.834,0.447c12.327,0.005,24.534-2.433,35.914-7.172c1.271,1.72,3.147,2.893,5.249,3.285
		c29.219,5.183,59.123,5.183,88.342,0c4.068-0.729,7.029-4.267,7.029-8.4V454.23c18.545-4.722,36.313-12.089,52.758-21.875
		l32.175,32.175c2.922,2.93,7.527,3.336,10.917,0.962c24.334-16.968,45.474-38.107,62.442-62.442
		c2.37-3.391,1.964-7.993-0.962-10.917l-32.175-32.175c9.786-16.445,17.153-34.214,21.875-52.758h45.483
		c4.132,0,7.671-2.961,8.4-7.029c5.183-29.219,5.183-59.123,0-88.342C507.384,207.762,503.845,204.801,499.713,204.801z
		 M163.318,494.562c-0.873-0.083-1.728-0.233-2.592-0.346c-1.523-0.198-3.044-0.407-4.539-0.694
		c-1.024-0.197-2.032-0.445-3.043-0.682c-1.308-0.307-2.61-0.63-3.892-1.003c-1.038-0.303-2.065-0.634-3.085-0.979
		c-1.235-0.417-2.456-0.865-3.661-1.343c-0.981-0.388-1.959-0.784-2.921-1.212c-1.25-0.556-2.472-1.158-3.685-1.778
		c-0.853-0.435-1.714-0.857-2.549-1.323c-1.417-0.792-2.792-1.648-4.152-2.526c-0.573-0.369-1.166-0.709-1.73-1.092
		c-3.947-2.692-7.637-5.743-11.022-9.115c-0.109-0.109-0.209-0.228-0.318-0.337c-1.559-1.576-3.05-3.216-4.472-4.92
		c-0.253-0.304-0.489-0.623-0.738-0.931c-1.241-1.538-2.432-3.118-3.554-4.749c-0.289-0.42-0.563-0.851-0.845-1.277
		c-1.024-1.556-1.994-3.149-2.907-4.78c-0.286-0.514-0.568-1.03-0.844-1.551c-0.839-1.584-1.613-3.207-2.342-4.854
		c-0.261-0.591-0.53-1.179-0.776-1.778c-0.67-1.627-1.264-3.292-1.824-4.973c-0.213-0.643-0.449-1.274-0.646-1.925
		c-0.533-1.755-0.972-3.548-1.38-5.353c-0.133-0.589-0.302-1.163-0.421-1.758c-4.327-21.45,0.707-43.728,13.839-61.232
		c2.817-3.767,2.053-9.104-1.708-11.93s-9.1-2.074-11.934,1.68c-12.244,16.223-18.84,36.009-18.779,56.334
		c0,1.689,0.165,3.337,0.254,5.004c-25.78-8.886-43.039-33.202-42.92-60.47c-0.001-3.515,0.284-7.024,0.853-10.493
		c0.06-0.368,0.196-0.708,0.263-1.074c1.792-9.986,5.978-19.389,12.197-27.404c0.058-0.075,0.068-0.174,0.123-0.251
		c8.055-10.427,19.144-18.101,31.74-21.966c4.506-1.385,7.035-6.161,5.65-10.667c-1.385-4.506-6.161-7.035-10.667-5.65
		c-13.219,4.051-25.181,11.417-34.748,21.398c-14.28-12.935-22.442-31.293-22.478-50.561c0.022-2.863,0.221-5.722,0.596-8.56
		c0.113-0.905,0.264-1.799,0.413-2.693c0.319-1.941,0.738-3.85,1.219-5.739c0.246-0.956,0.452-1.927,0.739-2.866
		c0.71-2.34,1.545-4.64,2.504-6.89c0.558-1.307,1.209-2.563,1.846-3.827c0.529-1.057,1.077-2.103,1.66-3.13
		c0.784-1.373,1.587-2.735,2.461-4.047c0.503-0.756,1.064-1.472,1.597-2.208c1.661-2.288,3.461-4.471,5.39-6.538
		c0.755-0.807,1.501-1.621,2.297-2.392c1.045-1.015,2.127-1.992,3.234-2.94c1.22-1.039,2.492-2.027,3.792-2.985
		c1.029-0.763,2.052-1.527,3.123-2.232c1.982-1.294,4.029-2.486,6.132-3.572c9.656-5.023,20.38-7.647,31.264-7.649
		c4.713,0,8.533-3.821,8.533-8.533c0-4.713-3.821-8.533-8.533-8.533c-10.156,0.02-20.225,1.866-29.728,5.448
		c-2.937-7.142-4.434-14.793-4.406-22.515c0.004-27.038,18.168-50.702,44.285-57.697c26.117-6.995,53.677,4.423,67.195,27.839
		c1.527,2.639,4.347,4.263,7.396,4.26c3.049-0.003,5.866-1.633,7.388-4.275c1.522-2.642,1.519-5.896-0.009-8.535
		c-12.227-21.013-33.65-35.026-57.801-37.808c1.975-34.563,31.092-61.28,65.697-60.283c34.605,0.997,62.135,29.347,62.116,63.967
		v52.731l-37.05,51.873l-31.343-13.754c0.021-0.423,0.126-0.822,0.126-1.25c0.125-12.491-8.695-23.286-20.96-25.653
		c-12.265-2.367-24.469,4.372-29,16.012s-0.094,24.856,10.544,31.404c10.638,6.548,24.435,4.556,32.787-4.732l30.992,13.602
		c2.143,0.938,4.457,1.422,6.796,1.421c5.527,0.006,10.719-2.649,13.95-7.133l23.158-32.424v67.236h-69.839
		c-4.156-11.755-16.176-18.806-28.465-16.698c-12.289,2.108-21.271,12.763-21.271,25.231c0,12.468,8.982,23.123,21.271,25.231
		c12.289,2.108,24.309-4.943,28.465-16.698h69.839v34.133h-18.639c-4.156-11.755-16.176-18.806-28.465-16.698
		c-12.289,2.108-21.271,12.763-21.271,25.231s8.982,23.123,21.271,25.231c12.289,2.108,24.309-4.943,28.465-16.698h18.639v34.133
		h-69.804c-8.128,0.016-15.123,5.749-16.733,13.717l-6.024,30.116c-11.817,3.597-19.338,15.168-17.83,27.427
		c1.509,12.26,11.611,21.661,23.947,22.286c12.336,0.625,23.337-7.707,26.077-19.752c2.74-12.045-3.573-24.316-14.966-29.089
		l5.528-27.639h69.804v68.267c-0.049,42.395-34.405,76.751-76.8,76.8C168.187,494.934,165.739,494.793,163.318,494.562z
		 M264.534,214.197c19.865,4.055,34.133,21.529,34.133,41.804s-14.268,37.749-34.133,41.804V214.197z M264.534,315.053
		c29.381-4.206,51.2-29.372,51.2-59.052s-21.819-54.846-51.2-59.052v-42.916c53.05,4.397,93.866,48.736,93.866,101.968
		s-40.816,97.571-93.866,101.968V315.053z M153.6,179.201c-4.713,0-8.533-3.821-8.533-8.533s3.821-8.533,8.533-8.533
		s8.533,3.821,8.533,8.533C162.128,175.378,158.311,179.195,153.6,179.201z M162.134,238.934c0,4.713-3.82,8.533-8.533,8.533
		s-8.533-3.821-8.533-8.533c0-4.713,3.821-8.533,8.533-8.533C158.311,230.407,162.128,234.224,162.134,238.934z M213.334,290.134
		c0,4.713-3.821,8.533-8.533,8.533s-8.533-3.82-8.533-8.533s3.82-8.533,8.533-8.533
		C209.511,281.607,213.328,285.424,213.334,290.134z M162.134,392.534c4.713,0,8.533,3.821,8.533,8.533
		c0,4.713-3.821,8.533-8.533,8.533c-4.713,0-8.533-3.821-8.533-8.533C153.606,396.357,157.423,392.54,162.134,392.534z
		 M492.459,290.134h-44.971c-4.007-0.001-7.474,2.787-8.333,6.7c-4.642,21.239-13.036,41.48-24.788,59.771
		c-2.17,3.376-1.693,7.809,1.146,10.646l31.817,31.817c-13.645,18.357-29.905,34.617-48.263,48.262l-31.817-31.817
		c-2.839-2.835-7.269-3.312-10.646-1.146c-18.291,11.751-38.532,20.145-59.771,24.788c-3.914,0.859-6.702,4.327-6.701,8.333v44.971
		c-20.918,2.99-42.141,3.179-63.109,0.561c23.587-17.672,37.482-45.414,37.509-74.886v-43.099
		c62.491-4.408,110.934-56.388,110.934-119.034s-48.443-114.626-110.934-119.034V81.067c-0.003-24.435-11.047-47.559-30.049-62.92
		c18.54-1.718,37.218-1.249,55.649,1.395v44.971c-0.001,4.007,2.787,7.474,6.7,8.333c21.239,4.642,41.48,13.036,59.771,24.788
		c3.375,2.174,7.81,1.697,10.646-1.146l31.817-31.817c18.357,13.645,34.618,29.905,48.263,48.263l-31.817,31.817
		c-2.838,2.837-3.316,7.269-1.146,10.646c11.751,18.291,20.145,38.532,24.788,59.771c0.859,3.914,4.327,6.702,8.333,6.701h44.971
		C495.758,244.503,495.758,267.498,492.459,290.134L492.459,290.134z"/>
</g>
<g>
</g>
<g>
</g>
<g>
</g>
<g>
</g>
<g>
</g>
<g>
</g>
<g>
</g>
<g>
</g>
<g>
</g>
<g>
</g>
<g>
</g>
<g>
</g>
<g>
</g>
<g>
</g>
<g>
</g>
</svg>
